<svg width="19" height="15" viewBox="0 0 19 15" fill="none" xmlns="http://www.w3.org/2000/svg">
<path fill-rule="evenodd" clip-rule="evenodd" d="M9.10809 8.16637C7.5475 8.16637 6.28125 6.90138 6.28125 5.33953C6.28125 3.77768 7.5475 2.5127 9.10809 2.5127C10.6687 2.5127 11.9349 3.77768 11.9349 5.33953C11.9349 6.90138 10.6687 8.16637 9.10809 8.16637ZM7.87903 5.33953C7.87903 6.0186 8.42957 6.56859 9.10809 6.56859C9.7866 6.56859 10.3371 6.0186 10.3371 5.33953C10.3371 4.66046 9.7866 4.11047 9.10809 4.11047C8.42957 4.11047 7.87903 4.66046 7.87903 5.33953Z" fill="white"/>
<path fill-rule="evenodd" clip-rule="evenodd" d="M0 5.39121L5.41598 0H12.8014L18.2174 5.39121L9.1087 14.4483L0 5.39121ZM13.2938 3.42838C10.9926 1.12922 7.22483 1.12923 4.92362 3.42839L2.95417 5.38751L4.92362 7.34661C7.22483 9.64577 10.9926 9.64575 13.2938 7.34659L15.2632 5.38751L13.2938 3.42838Z" fill="white"/>
</svg>
