<svg width="16" height="16" viewBox="0 0 16 16" fill="none" xmlns="http://www.w3.org/2000/svg">
<path d="M8 0C3.5824 0 0 3.5824 0 8C0 12.4176 3.5824 16 8 16C12.4176 16 16 12.4176 16 8C16 3.5824 12.4192 0 8 0ZM3.9472 8.2688L3.9808 8.2144L6.0624 4.9584C6.0928 4.912 6.1648 4.9168 6.1872 4.968C6.5344 5.7472 6.8352 6.7168 6.6944 7.32C6.6352 7.568 6.4704 7.904 6.2848 8.2144C6.2608 8.2592 6.2352 8.304 6.2064 8.3472C6.1936 8.3664 6.1712 8.3776 6.1472 8.3776H4.008C3.9504 8.3776 3.9168 8.3152 3.9472 8.2688ZM13.2224 9.3888C13.2224 9.4192 13.2048 9.4448 13.1792 9.456C13.0176 9.5248 12.4656 9.7792 12.2368 10.0976C11.6512 10.912 11.2048 12.0768 10.2048 12.0768H6.0352C4.5568 12.0768 3.36 10.8752 3.36 9.392V9.344C3.36 9.3056 3.392 9.2736 3.432 9.2736H5.7552C5.8016 9.2736 5.8352 9.3152 5.832 9.3616C5.8144 9.512 5.8432 9.6672 5.9152 9.808C6.0528 10.088 6.3392 10.2624 6.648 10.2624H7.7984V9.3648H6.6608C6.6032 9.3648 6.568 9.2976 6.6016 9.2496C6.6144 9.2304 6.6272 9.2112 6.6432 9.1888C6.7504 9.0352 6.904 8.7984 7.0576 8.528C7.1616 8.3456 7.2624 8.1504 7.344 7.9552C7.36 7.92 7.3728 7.8832 7.3872 7.848C7.4096 7.7856 7.432 7.7264 7.448 7.6688C7.464 7.6192 7.4784 7.568 7.4912 7.52C7.5296 7.3536 7.5456 7.1776 7.5456 6.9952C7.5456 6.9232 7.5424 6.848 7.536 6.7776C7.5328 6.6992 7.5232 6.6208 7.5136 6.5424C7.5072 6.4736 7.4944 6.4048 7.4816 6.3344C7.464 6.2304 7.4416 6.1264 7.416 6.0224L7.4064 5.9824C7.3872 5.9104 7.3696 5.8432 7.3472 5.7712C7.2816 5.5472 7.208 5.328 7.128 5.1232C7.0992 5.0416 7.0672 4.9632 7.0336 4.8864C6.9856 4.768 6.936 4.6608 6.8912 4.56C6.8672 4.5136 6.848 4.472 6.8288 4.4288C6.8064 4.3808 6.784 4.3328 6.76 4.2864C6.744 4.2512 6.7248 4.2176 6.712 4.1856L6.5712 3.9264C6.552 3.8912 6.584 3.848 6.6224 3.8592L7.5024 4.0976H7.5056C7.5072 4.0976 7.5072 4.0976 7.5088 4.0976L7.624 4.1312L7.752 4.1664L7.7984 4.1792V3.6576C7.7984 3.4048 8 3.2 8.2512 3.2C8.376 3.2 8.4896 3.2512 8.5696 3.3344C8.6512 3.4176 8.7024 3.5312 8.7024 3.6576V4.4336L8.7968 4.4592C8.8032 4.4624 8.8112 4.4656 8.8176 4.4704C8.84 4.4864 8.8736 4.512 8.9152 4.544C8.9488 4.5696 8.984 4.6016 9.0256 4.6352C9.1104 4.704 9.2128 4.792 9.3232 4.8928C9.352 4.9184 9.3808 4.944 9.408 4.9712C9.5504 5.104 9.7104 5.2592 9.864 5.432C9.9072 5.4816 9.9488 5.5296 9.992 5.5824C10.0336 5.6352 10.08 5.6864 10.1184 5.7376C10.1712 5.8064 10.2256 5.8784 10.2752 5.9536C10.2976 5.9888 10.3248 6.0256 10.3456 6.0608C10.4096 6.1552 10.464 6.2528 10.5168 6.3504C10.5392 6.3952 10.5616 6.4448 10.5808 6.4928C10.64 6.624 10.6864 6.7568 10.7152 6.8912C10.7248 6.92 10.7312 6.9504 10.7344 6.9792V6.9856C10.744 7.024 10.7472 7.0656 10.7504 7.1088C10.7632 7.2448 10.7568 7.3824 10.728 7.52C10.7152 7.5776 10.6992 7.632 10.68 7.6912C10.6592 7.7472 10.64 7.8048 10.6144 7.8608C10.5648 7.9744 10.5072 8.0896 10.4384 8.1952C10.416 8.2352 10.3888 8.2768 10.3632 8.3168C10.3344 8.3584 10.304 8.3984 10.2784 8.4368C10.2416 8.4864 10.2032 8.5376 10.1632 8.584C10.128 8.632 10.0928 8.68 10.0528 8.7232C9.9984 8.7888 9.9456 8.8496 9.8896 8.9088C9.8576 8.9472 9.8224 8.9872 9.7856 9.0224C9.7504 9.0624 9.7136 9.0976 9.6816 9.1296C9.6256 9.1856 9.5808 9.2272 9.5424 9.264L9.4512 9.3456C9.4384 9.3584 9.4208 9.3648 9.4032 9.3648H8.7024V10.2624H9.584C9.7808 10.2624 9.968 10.1936 10.12 10.064C10.1712 10.0192 10.3968 9.824 10.664 9.5296C10.6736 9.5184 10.6848 9.512 10.6976 9.5088L13.1312 8.8048C13.1776 8.792 13.2224 8.8256 13.2224 8.8736V9.3888Z" fill="white"/>
</svg>
