<svg width="16" height="16" viewBox="0 0 16 16" fill="none" xmlns="http://www.w3.org/2000/svg">
<path fill-rule="evenodd" clip-rule="evenodd" d="M3.46842 0C1.57012 0 0.03125 1.56598 0.03125 3.4977V12.4519C0.03125 14.3836 1.57012 15.9496 3.46842 15.9496H12.2676C14.1659 15.9496 15.7047 14.3836 15.7047 12.4519V3.4977C15.7047 1.56598 14.1659 0 12.2676 0H3.46842ZM10.8711 7.9548C11.3632 7.8226 11.8011 7.44203 11.8011 6.67693C11.8011 5.4031 10.7548 5.1067 9.41411 5.1067H4.07433V10.8429H6.32184V8.89613H8.98786C9.3986 8.89613 9.63887 9.06437 9.63887 9.48097V10.8429H11.8864V9.40887C11.8864 8.62777 11.4601 8.13503 10.8711 7.9548ZM9.36122 6.70933H6.32285V7.49143H9.36122V7.4912C9.36576 7.49137 9.37029 7.49143 9.37487 7.49143C9.58381 7.49143 9.75318 7.31637 9.75318 7.1004C9.75318 6.8844 9.58381 6.70933 9.37487 6.70933C9.37029 6.70933 9.36576 6.70943 9.36122 6.7096V6.70933Z" fill="white"/>
</svg>
